<?xml version="1.0" standalone="no"?>
<!DOCTYPE svg PUBLIC "-//W3C//DTD SVG 20010904//EN"
 "http://www.w3.org/TR/2001/REC-SVG-20010904/DTD/svg10.dtd">
<svg version="1.0" xmlns="http://www.w3.org/2000/svg"
 width="700.000000pt" height="700.000000pt" viewBox="0 0 700.000000 700.000000"
 preserveAspectRatio="xMidYMid meet">
<metadata>
Created by potrace 1.11, written by Peter Selinger 2001-2013
</metadata>
<g transform="translate(0.000000,700.000000) scale(0.100000,-0.100000)"
fill="#000000" stroke="none">
<path d="M3335 5653 c-434 -27 -859 -191 -1212 -470 -106 -83 -293 -277 -375
-388 -215 -290 -355 -625 -415 -996 -26 -161 -23 -468 5 -629 22 -121 80 -341
107 -406 13 -31 11 -36 -37 -121 -61 -107 -245 -387 -353 -538 -90 -126 -121
-194 -131 -285 -22 -223 132 -432 354 -479 37 -8 391 -11 1185 -11 948 0 1153
2 1262 15 385 45 744 192 1070 438 103 78 314 289 392 392 299 397 453 844
453 1317 0 200 -42 457 -106 650 l-25 77 39 83 c49 104 137 248 310 503 74
110 144 223 155 250 10 28 22 86 24 131 12 184 -85 347 -254 427 -66 31 -72
32 -218 34 -217 4 -2182 8 -2230 6z m2314 -243 c47 -13 93 -47 122 -88 20 -30
24 -48 24 -111 l0 -76 -136 -200 c-179 -262 -227 -340 -321 -518 -48 -92 -78
-160 -78 -179 0 -17 11 -62 25 -100 34 -94 71 -244 96 -385 44 -257 18 -566
-71 -840 -205 -634 -732 -1126 -1380 -1288 -220 -55 -213 -55 -1458 -55
l-1150 0 -53 28 c-43 22 -59 38 -82 82 -25 48 -28 63 -24 113 4 48 13 69 46
115 22 32 98 143 169 247 215 317 322 507 322 572 0 18 -17 84 -39 146 -142
413 -147 798 -15 1212 229 718 862 1236 1617 1324 104 12 2344 13 2386 1z"/>
<path d="M2985 4999 c-351 -118 -680 -377 -859 -676 -82 -138 -176 -369 -176
-435 0 -68 69 -126 135 -114 57 11 81 39 110 129 33 101 109 260 166 347 58
88 266 293 364 358 99 66 234 131 345 168 106 34 140 65 140 124 0 56 -24 99
-65 116 -47 19 -57 18 -160 -17z"/>
<path d="M3763 5019 c-94 -27 -107 -170 -20 -212 45 -21 258 -87 282 -87 35 0
86 39 102 77 19 46 5 102 -33 132 -25 20 -206 83 -269 94 -16 3 -44 1 -62 -4z"/>
<path d="M4296 4729 c-41 -36 -55 -84 -36 -130 7 -16 45 -56 84 -88 119 -98
204 -196 328 -380 37 -55 90 -71 145 -45 49 24 78 77 69 125 -8 44 -96 178
-190 288 -70 83 -203 206 -261 242 -46 29 -98 25 -139 -12z"/>
<path d="M3198 4480 c-163 -47 -218 -89 -218 -167 0 -38 5 -50 34 -79 42 -42
83 -44 176 -9 36 13 84 29 107 35 81 20 119 109 77 179 -33 56 -83 67 -176 41z"/>
<path d="M4098 4181 c-30 -26 -33 -35 -33 -83 0 -48 4 -59 40 -102 22 -27 54
-70 70 -95 41 -62 93 -88 145 -72 76 23 107 98 70 171 -37 72 -107 163 -150
193 -40 28 -104 22 -142 -12z"/>
<path d="M2625 4040 c-34 -14 -63 -52 -104 -140 -124 -266 -127 -578 -8 -858
44 -103 81 -142 136 -142 56 0 95 22 115 64 22 47 21 58 -18 145 -61 134 -80
220 -80 361 0 143 16 214 87 363 40 87 41 89 26 130 -23 67 -93 103 -154 77z"/>
<path d="M3371 3934 c-253 -68 -410 -331 -346 -579 81 -309 432 -453 708 -290
54 31 134 114 169 175 56 97 74 243 44 356 -65 246 -333 403 -575 338z m214
-248 c89 -41 138 -119 137 -218 0 -108 -79 -205 -185 -228 -194 -41 -350 160
-261 338 58 116 192 163 309 108z"/>
<path d="M4888 3774 c-46 -25 -61 -67 -53 -148 4 -39 6 -137 6 -218 -1 -143 0
-147 24 -177 38 -44 82 -56 134 -35 71 28 76 47 76 284 0 179 -3 210 -19 243
-31 62 -106 85 -168 51z"/>
<path d="M4346 3679 c-43 -34 -48 -54 -50 -208 -3 -128 -6 -156 -31 -231 -66
-202 -175 -347 -343 -453 -92 -58 -114 -116 -72 -185 27 -44 79 -66 125 -53
94 26 291 197 379 329 67 101 123 224 152 337 22 84 27 123 28 245 1 121 -2
150 -17 177 -33 61 -120 82 -171 42z"/>
<path d="M2052 3024 c-27 -19 -52 -65 -52 -97 0 -29 48 -146 93 -227 108 -195
307 -427 386 -450 60 -17 121 16 141 76 19 55 5 83 -90 183 -112 117 -197 240
-266 385 -33 70 -63 120 -78 130 -32 20 -105 21 -134 0z"/>
<path d="M4720 2832 c-24 -12 -55 -48 -104 -122 -178 -267 -468 -476 -770
-555 -144 -38 -243 -48 -413 -43 -145 5 -157 3 -186 -16 -36 -25 -62 -84 -53
-121 13 -51 56 -85 121 -95 129 -21 357 -10 517 25 323 71 646 261 854 503 97
113 195 264 200 309 6 49 -24 99 -71 119 -44 18 -53 18 -95 -4z"/>
<path d="M2933 2780 c-40 -24 -53 -48 -53 -99 0 -60 37 -96 156 -153 118 -56
270 -98 356 -98 55 0 63 3 94 34 29 29 34 41 34 79 0 45 -23 87 -58 106 -10 5
-58 16 -107 25 -98 17 -187 48 -271 96 -62 35 -106 38 -151 10z"/>
</g>
</svg>
